<svg width="32" height="32" viewBox="0 0 32 32" fill="none" xmlns="http://www.w3.org/2000/svg">
<rect width="32" height="32" rx="6" fill="url(#paint0_linear_3_22522)"/>
<path fill-rule="evenodd" clip-rule="evenodd" d="M6.52 11.823C6 12.77 6 13.915 6 16.203V17.725C6 21.625 6 23.576 7.172 24.788C8.343 26 10.229 26 14 26H18C21.771 26 23.657 26 24.828 24.788C26 23.576 26 21.626 26 17.725V16.204C26 13.915 26 12.771 25.48 11.823C24.962 10.874 24.013 10.286 22.116 9.108L20.116 7.867C18.111 6.622 17.108 6 16 6C14.892 6 13.89 6.622 11.884 7.867L9.884 9.108C7.987 10.286 7.039 10.874 6.52 11.823ZM13.446 19.398C13.3671 19.3366 13.2768 19.2916 13.1803 19.2657C13.0839 19.2397 12.9832 19.2333 12.8842 19.2468C12.7852 19.2603 12.6898 19.2934 12.6038 19.3442C12.5178 19.3951 12.4428 19.4626 12.3832 19.5428C12.3237 19.623 12.2807 19.7143 12.257 19.8114C12.2332 19.9084 12.229 20.0092 12.2447 20.1079C12.2605 20.2066 12.2957 20.3011 12.3485 20.386C12.4013 20.4708 12.4705 20.5443 12.552 20.602C13.5475 21.3463 14.757 21.749 16 21.75C17.2427 21.7488 18.4517 21.3461 19.447 20.602C19.5285 20.5443 19.5977 20.4708 19.6505 20.386C19.7033 20.3011 19.7385 20.2066 19.7543 20.1079C19.77 20.0092 19.7658 19.9084 19.742 19.8114C19.7183 19.7143 19.6753 19.623 19.6158 19.5428C19.5562 19.4626 19.4812 19.3951 19.3952 19.3442C19.3092 19.2934 19.2138 19.2603 19.1148 19.2468C19.0158 19.2333 18.9151 19.2397 18.8187 19.2657C18.7222 19.2916 18.6319 19.3366 18.553 19.398C17.8162 19.95 16.9206 20.2488 16 20.25C15.0794 20.2488 14.1828 19.95 13.446 19.398Z" fill="#ECE9E7"/>
<defs>
<linearGradient id="paint0_linear_3_22522" x1="1.48093e-06" y1="0.399999" x2="25.5686" y2="53.4067" gradientUnits="userSpaceOnUse">
<stop stop-color="#1B303C"/>
<stop offset="1" stop-color="#648B7D"/>
</linearGradient>
</defs>
</svg>
